<svg width="24" height="24" viewBox="0 0 24 24" fill="none" xmlns="http://www.w3.org/2000/svg">
<path opacity="0.5" d="M19 2H5C4.20508 2.00237 3.4434 2.31921 2.8813 2.8813C2.31921 3.4434 2.00237 4.20508 2 5V13.86L5.88 9.98C6.4517 9.43586 7.21074 9.13238 8 9.13238C8.78926 9.13238 9.5483 9.43586 10.12 9.98L12.991 12.867L13.879 11.979C14.4426 11.4185 15.2052 11.1039 16 11.1039C16.7948 11.1039 17.5574 11.4185 18.121 11.979L22 15.86V5C21.9976 4.20508 21.6808 3.4434 21.1187 2.8813C20.5566 2.31921 19.7949 2.00237 19 2Z" fill="#4A5568"/>
<path d="M10.12 9.98C9.5483 9.43586 8.78926 9.13238 8 9.13238C7.21074 9.13238 6.4517 9.43586 5.88 9.98L2 13.86V19C2.00237 19.7949 2.31921 20.5566 2.8813 21.1187C3.4434 21.6808 4.20508 21.9976 5 22H19C19.815 22 20.595 21.667 21.16 21.08L10.12 9.98Z" fill="#4A5568"/>
<path opacity="0.25" d="M22 15.858L18.121 11.979C17.5574 11.4185 16.7948 11.1039 16 11.1039C15.2051 11.1039 14.4426 11.4185 13.879 11.979L12.991 12.867L21.156 21.076C21.698 20.521 22.001 19.776 22 19V15.858Z" fill="#4A5568"/>
</svg>
