<svg width="24" height="24" viewBox="0 0 24 24" fill="none" xmlns="http://www.w3.org/2000/svg">
<path opacity="0.5" d="M20.94 22H3.06003C2.91961 22 2.78077 21.9704 2.65254 21.9131C2.52432 21.8559 2.40959 21.7723 2.31582 21.6678C2.22205 21.5633 2.15134 21.4402 2.10831 21.3065C2.06527 21.1728 2.05086 21.0316 2.06603 20.892C2.33739 18.4471 3.50084 16.1881 5.3337 14.5474C7.16657 12.9067 9.5401 11.9996 12 11.9996C14.46 11.9996 16.8335 12.9067 18.6664 14.5474C20.4992 16.1881 21.6627 18.4471 21.934 20.892C21.9492 21.0316 21.9348 21.1728 21.8918 21.3065C21.8487 21.4402 21.778 21.5633 21.6842 21.6678C21.5905 21.7723 21.4757 21.8559 21.3475 21.9131C21.2193 21.9704 21.0805 22 20.94 22Z" fill="#4A5568"/>
<path opacity="0.25" d="M12.7081 18.307L17.4141 13.592C15.7988 12.552 13.9182 11.9992 11.9971 11.9997C10.076 12.0003 8.19572 12.5541 6.58105 13.595L11.2931 18.307C11.4805 18.4946 11.7349 18.5999 12.0001 18.6C12.2656 18.6 12.5202 18.4946 12.7081 18.307Z" fill="#4A5568"/>
<path opacity="0.25" d="M11.995 14C10.8083 14 9.64827 13.6481 8.66158 12.9888C7.67488 12.3295 6.90585 11.3925 6.45172 10.2961C5.99759 9.19974 5.87877 7.99334 6.11029 6.82946C6.3418 5.66557 6.91324 4.59647 7.75236 3.75736C8.59147 2.91824 9.66057 2.3468 10.8245 2.11529C11.9883 1.88378 13.1947 2.0026 14.2911 2.45672C15.3875 2.91085 16.3245 3.67988 16.9838 4.66658C17.6431 5.65327 17.995 6.81331 17.995 8C17.9931 9.59073 17.3604 11.1158 16.2356 12.2406C15.1108 13.3654 13.5857 13.9981 11.995 14Z" fill="#4A5568"/>
<path d="M6.08997 9C6.325 10.3975 7.04765 11.6665 8.12961 12.5817C9.21158 13.4969 10.5828 13.999 12 13.999C13.4171 13.999 14.7884 13.4969 15.8703 12.5817C16.9523 11.6665 17.6749 10.3975 17.91 9H6.08997Z" fill="#4A5568"/>
</svg>
